<svg width="477" height="80" viewBox="0 0 477 80" fill="none" xmlns="http://www.w3.org/2000/svg">
<path d="M26.0346 74C25.2799 74 24.6625 73.7599 24.1823 73.2797C23.7021 72.7995 23.462 72.182 23.462 71.4274V16.2712H4.73356C4.04753 16.2712 3.46441 16.0311 2.9842 15.5509C2.50398 15.0707 2.26387 14.4875 2.26387 13.8015V4.54022C2.26387 3.78559 2.50398 3.16817 2.9842 2.68796C3.46441 2.20774 4.04753 1.96763 4.73356 1.96763H58.6549C59.4096 1.96763 60.027 2.20774 60.5072 2.68796C60.9874 3.16817 61.2275 3.78559 61.2275 4.54022V13.8015C61.2275 14.4875 60.9874 15.0707 60.5072 15.5509C60.027 16.0311 59.4096 16.2712 58.6549 16.2712H40.0294V71.4274C40.0294 72.182 39.7893 72.7995 39.3091 73.2797C38.8289 73.7599 38.2115 74 37.4568 74H26.0346ZM80.3868 74C79.6322 74 79.0148 73.7599 78.5346 73.2797C78.0544 72.7995 77.8142 72.182 77.8142 71.4274V4.54022C77.8142 3.78559 78.0544 3.16817 78.5346 2.68796C79.0148 2.20774 79.6322 1.96763 80.3868 1.96763H91.6033C92.3579 1.96763 92.9753 2.20774 93.4556 2.68796C93.9358 3.16817 94.1759 3.78559 94.1759 4.54022V30.2661H122.063V4.54022C122.063 3.78559 122.303 3.16817 122.783 2.68796C123.263 2.20774 123.881 1.96763 124.635 1.96763H135.852C136.606 1.96763 137.224 2.20774 137.704 2.68796C138.184 3.16817 138.424 3.78559 138.424 4.54022V71.4274C138.424 72.182 138.184 72.7995 137.704 73.2797C137.224 73.7599 136.606 74 135.852 74H124.635C123.881 74 123.263 73.7599 122.783 73.2797C122.303 72.7995 122.063 72.182 122.063 71.4274V44.8783H94.1759V71.4274C94.1759 72.182 93.9358 72.7995 93.4556 73.2797C92.9753 73.7599 92.3579 74 91.6033 74H80.3868ZM162.947 74C162.192 74 161.575 73.7599 161.094 73.2797C160.614 72.7995 160.374 72.182 160.374 71.4274V4.54022C160.374 3.78559 160.614 3.16817 161.094 2.68796C161.575 2.20774 162.192 1.96763 162.947 1.96763H190.216C198.791 1.96763 205.549 3.9571 210.488 7.93603C215.427 11.8464 217.897 17.506 217.897 24.9151C217.897 29.9231 216.697 34.1078 214.295 37.4693C211.894 40.8308 208.67 43.3348 204.623 44.9812L219.132 70.7071C219.338 71.1187 219.441 71.496 219.441 71.839C219.441 72.3878 219.235 72.9024 218.823 73.3826C218.412 73.7942 217.897 74 217.28 74H205.857C204.623 74 203.696 73.6913 203.079 73.0739C202.462 72.3878 202.016 71.7704 201.741 71.2216L189.187 47.6567H176.736V71.4274C176.736 72.182 176.496 72.7995 176.015 73.2797C175.535 73.7599 174.918 74 174.163 74H162.947ZM176.736 34.588H189.907C193.681 34.588 196.459 33.7305 198.243 32.0154C200.095 30.3004 201.021 27.8993 201.021 24.8122C201.021 21.7251 200.129 19.2897 198.345 17.506C196.562 15.7224 193.749 14.8306 189.907 14.8306H176.736V34.588ZM239.779 74C239.024 74 238.406 73.7599 237.926 73.2797C237.446 72.7995 237.206 72.182 237.206 71.4274V4.54022C237.206 3.78559 237.446 3.16817 237.926 2.68796C238.406 2.20774 239.024 1.96763 239.779 1.96763H251.407C252.161 1.96763 252.779 2.20774 253.259 2.68796C253.739 3.16817 253.979 3.78559 253.979 4.54022V71.4274C253.979 72.182 253.739 72.7995 253.259 73.2797C252.779 73.7599 252.161 74 251.407 74H239.779ZM278.424 74C277.669 74 277.052 73.7599 276.571 73.2797C276.091 72.7995 275.851 72.182 275.851 71.4274V4.54022C275.851 3.78559 276.091 3.16817 276.571 2.68796C277.052 2.20774 277.669 1.96763 278.424 1.96763H324.318C325.073 1.96763 325.691 2.20774 326.171 2.68796C326.651 3.16817 326.891 3.78559 326.891 4.54022V13.287C326.891 14.0416 326.651 14.659 326.171 15.1393C325.691 15.6195 325.073 15.8596 324.318 15.8596H291.904V33.2503H322.26C323.015 33.2503 323.632 33.4904 324.113 33.9706C324.593 34.4508 324.833 35.0682 324.833 35.8228V44.5696C324.833 45.2557 324.593 45.8388 324.113 46.319C323.632 46.7992 323.015 47.0393 322.26 47.0393H291.904V71.4274C291.904 72.182 291.664 72.7995 291.184 73.2797C290.703 73.7599 290.086 74 289.331 74H278.424ZM363.666 74C362.912 74 362.294 73.7599 361.814 73.2797C361.334 72.7995 361.094 72.182 361.094 71.4274V16.2712H342.365C341.679 16.2712 341.096 16.0311 340.616 15.5509C340.136 15.0707 339.895 14.4875 339.895 13.8015V4.54022C339.895 3.78559 340.136 3.16817 340.616 2.68796C341.096 2.20774 341.679 1.96763 342.365 1.96763H396.287C397.041 1.96763 397.659 2.20774 398.139 2.68796C398.619 3.16817 398.859 3.78559 398.859 4.54022V13.8015C398.859 14.4875 398.619 15.0707 398.139 15.5509C397.659 16.0311 397.041 16.2712 396.287 16.2712H377.661V71.4274C377.661 72.182 377.421 72.7995 376.941 73.2797C376.46 73.7599 375.843 74 375.088 74H363.666ZM436.747 74C435.992 74 435.375 73.7599 434.895 73.2797C434.414 72.7995 434.174 72.182 434.174 71.4274V48.7887L410.095 5.26054C410.026 5.05474 409.958 4.88323 409.889 4.74603C409.82 4.54022 409.786 4.33441 409.786 4.12861C409.786 3.57979 409.992 3.09957 410.404 2.68796C410.884 2.20774 411.398 1.96763 411.947 1.96763H422.855C423.815 1.96763 424.57 2.20774 425.119 2.68796C425.668 3.16817 426.045 3.61409 426.251 4.02571L442.407 32.3241L458.562 4.02571C458.768 3.61409 459.145 3.16817 459.694 2.68796C460.243 2.20774 460.998 1.96763 461.958 1.96763H472.866C473.415 1.96763 473.895 2.20774 474.307 2.68796C474.787 3.09957 475.027 3.57979 475.027 4.12861C475.027 4.33441 474.993 4.54022 474.924 4.74603C474.855 4.88323 474.787 5.05474 474.718 5.26054L450.639 48.7887V71.4274C450.639 72.182 450.399 72.7995 449.918 73.2797C449.438 73.7599 448.821 74 448.066 74H436.747Z" fill="#1E1E1E"/>
</svg>
